<svg width="67" height="27" viewBox="0 0 67 27" fill="none" xmlns="http://www.w3.org/2000/svg">
<path d="M1.20263 7.58777V2.07179H3.6139C4.21278 2.07179 4.73811 2.18736 5.1899 2.41851C5.64168 2.64965 5.99366 2.9701 6.24581 3.37986C6.49797 3.78962 6.62405 4.27293 6.62405 4.82978C6.62405 5.38138 6.49797 5.86468 6.24581 6.27969C5.99366 6.68945 5.64168 7.0099 5.1899 7.24105C4.73811 7.4722 4.21278 7.58777 3.6139 7.58777H1.20263ZM2.22703 6.72097H3.56662C3.98164 6.72097 4.33886 6.64217 4.6383 6.48457C4.94299 6.32697 5.17676 6.10633 5.33962 5.82265C5.50772 5.53898 5.59178 5.20802 5.59178 4.82978C5.59178 4.44629 5.50772 4.11533 5.33962 3.8369C5.17676 3.55322 4.94299 3.33258 4.6383 3.17498C4.33886 3.01738 3.98164 2.93858 3.56662 2.93858H2.22703V6.72097ZM9.83256 7.64293C9.36501 7.64293 8.95525 7.551 8.60328 7.36713C8.25656 7.17801 7.98602 6.9206 7.79164 6.59489C7.60252 6.26919 7.50796 5.89883 7.50796 5.48382C7.50796 5.06355 7.5999 4.69319 7.78376 4.37274C7.97288 4.04703 8.23029 3.79225 8.556 3.60838C8.88696 3.42452 9.26257 3.33258 9.68284 3.33258C10.0926 3.33258 10.4577 3.42189 10.7782 3.6005C11.0986 3.77911 11.3508 4.03127 11.5346 4.35698C11.7185 4.68269 11.8104 5.06618 11.8104 5.50746C11.8104 5.54948 11.8078 5.59676 11.8025 5.6493C11.8025 5.70183 11.7999 5.75173 11.7947 5.79901H8.28808V5.14498H11.2746L10.8885 5.34986C10.8937 5.1082 10.8438 4.89544 10.7388 4.71158C10.6337 4.52771 10.4892 4.38325 10.3054 4.27818C10.1267 4.17311 9.91924 4.12058 9.68284 4.12058C9.44118 4.12058 9.22842 4.17311 9.04456 4.27818C8.86595 4.38325 8.72411 4.53034 8.61904 4.71946C8.51923 4.90332 8.46932 5.12134 8.46932 5.3735V5.5311C8.46932 5.78325 8.52711 6.00652 8.64268 6.20089C8.75825 6.39527 8.92111 6.54499 9.13124 6.65005C9.34137 6.75512 9.58302 6.80765 9.8562 6.80765C10.0926 6.80765 10.3054 6.77088 10.4945 6.69733C10.6836 6.62379 10.8517 6.50821 10.9988 6.35061L11.5267 6.95737C11.3376 7.17801 11.0986 7.34874 10.8097 7.46957C10.526 7.58514 10.2003 7.64293 9.83256 7.64293ZM14.035 7.58777L12.2305 3.37986H13.2549L14.8072 7.09133H14.3029L15.9104 3.37986H16.856L15.0515 7.58777H14.035ZM19.5705 7.64293C19.1029 7.64293 18.6932 7.551 18.3412 7.36713C17.9945 7.17801 17.7239 6.9206 17.5296 6.59489C17.3404 6.26919 17.2459 5.89883 17.2459 5.48382C17.2459 5.06355 17.3378 4.69319 17.5217 4.37274C17.7108 4.04703 17.9682 3.79225 18.2939 3.60838C18.6249 3.42452 19.0005 3.33258 19.4208 3.33258C19.8305 3.33258 20.1956 3.42189 20.5161 3.6005C20.8365 3.77911 21.0887 4.03127 21.2726 4.35698C21.4564 4.68269 21.5484 5.06618 21.5484 5.50746C21.5484 5.54948 21.5457 5.59676 21.5405 5.6493C21.5405 5.70183 21.5378 5.75173 21.5326 5.79901H18.026V5.14498H21.0125L20.6264 5.34986C20.6316 5.1082 20.5817 4.89544 20.4767 4.71158C20.3716 4.52771 20.2271 4.38325 20.0433 4.27818C19.8647 4.17311 19.6572 4.12058 19.4208 4.12058C19.1791 4.12058 18.9663 4.17311 18.7825 4.27818C18.6039 4.38325 18.462 4.53034 18.357 4.71946C18.2571 4.90332 18.2072 5.12134 18.2072 5.3735V5.5311C18.2072 5.78325 18.265 6.00652 18.3806 6.20089C18.4962 6.39527 18.659 6.54499 18.8692 6.65005C19.0793 6.75512 19.3209 6.80765 19.5941 6.80765C19.8305 6.80765 20.0433 6.77088 20.2324 6.69733C20.4215 6.62379 20.5896 6.50821 20.7367 6.35061L21.2647 6.95737C21.0756 7.17801 20.8365 7.34874 20.5476 7.46957C20.2639 7.58514 19.9382 7.64293 19.5705 7.64293ZM22.7309 7.58777V1.74083H23.7159V7.58777H22.7309ZM27.1363 7.64293C26.7055 7.64293 26.322 7.551 25.9858 7.36713C25.6496 7.17801 25.3843 6.9206 25.1899 6.59489C24.9956 6.26919 24.8984 5.89883 24.8984 5.48382C24.8984 5.06355 24.9956 4.69319 25.1899 4.37274C25.3843 4.04703 25.6496 3.79225 25.9858 3.60838C26.322 3.42452 26.7055 3.33258 27.1363 3.33258C27.5723 3.33258 27.9584 3.42452 28.2947 3.60838C28.6361 3.79225 28.9014 4.04441 29.0905 4.36486C29.2849 4.68531 29.3821 5.0583 29.3821 5.48382C29.3821 5.89883 29.2849 6.26919 29.0905 6.59489C28.9014 6.9206 28.6361 7.17801 28.2947 7.36713C27.9584 7.551 27.5723 7.64293 27.1363 7.64293ZM27.1363 6.79977C27.378 6.79977 27.5933 6.74724 27.7825 6.64217C27.9716 6.53711 28.1187 6.38476 28.2237 6.18513C28.3341 5.98551 28.3892 5.75173 28.3892 5.48382C28.3892 5.21064 28.3341 4.97687 28.2237 4.7825C28.1187 4.58287 27.9716 4.43053 27.7825 4.32546C27.5933 4.22039 27.3806 4.16786 27.1442 4.16786C26.9025 4.16786 26.6871 4.22039 26.498 4.32546C26.3142 4.43053 26.1671 4.58287 26.0567 4.7825C25.9464 4.97687 25.8913 5.21064 25.8913 5.48382C25.8913 5.75173 25.9464 5.98551 26.0567 6.18513C26.1671 6.38476 26.3142 6.53711 26.498 6.64217C26.6871 6.74724 26.8999 6.79977 27.1363 6.79977ZM32.8929 7.64293C32.5514 7.64293 32.2388 7.56413 31.9551 7.40653C31.6767 7.24893 31.4535 7.01253 31.2853 6.69733C31.1225 6.37688 31.0411 5.97237 31.0411 5.48382C31.0411 4.99 31.1199 4.5855 31.2775 4.2703C31.4403 3.9551 31.661 3.72133 31.9394 3.56898C32.2178 3.41138 32.5356 3.33258 32.8929 3.33258C33.3079 3.33258 33.673 3.42189 33.9882 3.6005C34.3086 3.77911 34.5608 4.02865 34.7447 4.3491C34.9338 4.66955 35.0283 5.04779 35.0283 5.48382C35.0283 5.91984 34.9338 6.30071 34.7447 6.62641C34.5608 6.94686 34.3086 7.1964 33.9882 7.37501C33.673 7.55362 33.3079 7.64293 32.8929 7.64293ZM30.5604 9.11648V3.37986H31.4981V4.37274L31.4666 5.4917L31.5454 6.61065V9.11648H30.5604ZM32.7825 6.79977C33.0189 6.79977 33.2291 6.74724 33.4129 6.64217C33.6021 6.53711 33.7518 6.38476 33.8621 6.18513C33.9724 5.98551 34.0276 5.75173 34.0276 5.48382C34.0276 5.21064 33.9724 4.97687 33.8621 4.7825C33.7518 4.58287 33.6021 4.43053 33.4129 4.32546C33.2291 4.22039 33.0189 4.16786 32.7825 4.16786C32.5461 4.16786 32.3334 4.22039 32.1443 4.32546C31.9551 4.43053 31.8054 4.58287 31.6951 4.7825C31.5848 4.97687 31.5296 5.21064 31.5296 5.48382C31.5296 5.75173 31.5848 5.98551 31.6951 6.18513C31.8054 6.38476 31.9551 6.53711 32.1443 6.64217C32.3334 6.74724 32.5461 6.79977 32.7825 6.79977ZM38.1768 7.64293C37.7092 7.64293 37.2995 7.551 36.9475 7.36713C36.6008 7.17801 36.3302 6.9206 36.1358 6.59489C35.9467 6.26919 35.8522 5.89883 35.8522 5.48382C35.8522 5.06355 35.9441 4.69319 36.128 4.37274C36.3171 4.04703 36.5745 3.79225 36.9002 3.60838C37.2312 3.42452 37.6068 3.33258 38.027 3.33258C38.4368 3.33258 38.8019 3.42189 39.1224 3.6005C39.4428 3.77911 39.695 4.03127 39.8788 4.35698C40.0627 4.68269 40.1546 5.06618 40.1546 5.50746C40.1546 5.54948 40.152 5.59676 40.1467 5.6493C40.1467 5.70183 40.1441 5.75173 40.1389 5.79901H36.6323V5.14498H39.6188L39.2327 5.34986C39.2379 5.1082 39.188 4.89544 39.083 4.71158C38.9779 4.52771 38.8334 4.38325 38.6496 4.27818C38.4709 4.17311 38.2634 4.12058 38.027 4.12058C37.7854 4.12058 37.5726 4.17311 37.3888 4.27818C37.2101 4.38325 37.0683 4.53034 36.9632 4.71946C36.8634 4.90332 36.8135 5.12134 36.8135 5.3735V5.5311C36.8135 5.78325 36.8713 6.00652 36.9869 6.20089C37.1025 6.39527 37.2653 6.54499 37.4754 6.65005C37.6856 6.75512 37.9272 6.80765 38.2004 6.80765C38.4368 6.80765 38.6496 6.77088 38.8387 6.69733C39.0278 6.62379 39.1959 6.50821 39.343 6.35061L39.8709 6.95737C39.6818 7.17801 39.4428 7.34874 39.1539 7.46957C38.8702 7.58514 38.5445 7.64293 38.1768 7.64293ZM43.1181 7.64293C42.7135 7.64293 42.3484 7.55362 42.0227 7.37501C41.7023 7.19114 41.4501 6.93898 41.2663 6.61853C41.0824 6.29808 40.9905 5.91984 40.9905 5.48382C40.9905 5.04779 41.0824 4.66955 41.2663 4.3491C41.4501 4.02865 41.7023 3.77911 42.0227 3.6005C42.3484 3.42189 42.7135 3.33258 43.1181 3.33258C43.47 3.33258 43.7852 3.41138 44.0636 3.56898C44.3421 3.72133 44.5627 3.9551 44.7256 4.2703C44.8884 4.5855 44.9698 4.99 44.9698 5.48382C44.9698 5.97237 44.891 6.37688 44.7334 6.69733C44.5758 7.01253 44.3578 7.24893 44.0794 7.40653C43.801 7.56413 43.4805 7.64293 43.1181 7.64293ZM43.2363 6.79977C43.4727 6.79977 43.6828 6.74724 43.8667 6.64217C44.0558 6.53711 44.2055 6.38476 44.3158 6.18513C44.4314 5.98551 44.4892 5.75173 44.4892 5.48382C44.4892 5.21064 44.4314 4.97687 44.3158 4.7825C44.2055 4.58287 44.0558 4.43053 43.8667 4.32546C43.6828 4.22039 43.4727 4.16786 43.2363 4.16786C42.9999 4.16786 42.7871 4.22039 42.598 4.32546C42.4141 4.43053 42.2644 4.58287 42.1488 4.7825C42.0385 4.97687 41.9833 5.21064 41.9833 5.48382C41.9833 5.75173 42.0385 5.98551 42.1488 6.18513C42.2644 6.38476 42.4141 6.53711 42.598 6.64217C42.7871 6.74724 42.9999 6.79977 43.2363 6.79977ZM44.5128 7.58777V6.59489L44.5522 5.47594L44.4734 4.35698V1.74083H45.4505V7.58777H44.5128ZM49.5315 7.58777V3.14346C49.5315 2.70219 49.6602 2.35021 49.9176 2.08755C50.1803 1.81963 50.5533 1.68567 51.0366 1.68567C51.2099 1.68567 51.3728 1.70406 51.5251 1.74083C51.6827 1.7776 51.8141 1.83539 51.9191 1.91419L51.6512 2.65491C51.5777 2.59712 51.4936 2.55509 51.399 2.52883C51.3045 2.49731 51.2073 2.48155 51.1075 2.48155C50.9026 2.48155 50.7476 2.53933 50.6426 2.65491C50.5375 2.76523 50.485 2.93333 50.485 3.15922V3.63202L50.5165 4.0733V7.58777H49.5315ZM48.838 4.19938V3.41138H51.6433V4.19938H48.838ZM54.3724 7.64293C53.9416 7.64293 53.5581 7.551 53.2219 7.36713C52.8857 7.17801 52.6204 6.9206 52.426 6.59489C52.2317 6.26919 52.1345 5.89883 52.1345 5.48382C52.1345 5.06355 52.2317 4.69319 52.426 4.37274C52.6204 4.04703 52.8857 3.79225 53.2219 3.60838C53.5581 3.42452 53.9416 3.33258 54.3724 3.33258C54.8084 3.33258 55.1945 3.42452 55.5307 3.60838C55.8722 3.79225 56.1375 4.04441 56.3266 4.36486C56.521 4.68531 56.6182 5.0583 56.6182 5.48382C56.6182 5.89883 56.521 6.26919 56.3266 6.59489C56.1375 6.9206 55.8722 7.17801 55.5307 7.36713C55.1945 7.551 54.8084 7.64293 54.3724 7.64293ZM54.3724 6.79977C54.614 6.79977 54.8294 6.74724 55.0185 6.64217C55.2077 6.53711 55.3547 6.38476 55.4598 6.18513C55.5701 5.98551 55.6253 5.75173 55.6253 5.48382C55.6253 5.21064 55.5701 4.97687 55.4598 4.7825C55.3547 4.58287 55.2077 4.43053 55.0185 4.32546C54.8294 4.22039 54.6167 4.16786 54.3803 4.16786C54.1386 4.16786 53.9232 4.22039 53.7341 4.32546C53.5502 4.43053 53.4031 4.58287 53.2928 4.7825C53.1825 4.97687 53.1273 5.21064 53.1273 5.48382C53.1273 5.75173 53.1825 5.98551 53.2928 6.18513C53.4031 6.38476 53.5502 6.53711 53.7341 6.64217C53.9232 6.74724 54.136 6.79977 54.3724 6.79977ZM57.7965 7.58777V3.37986H58.7342V4.53822L58.6239 4.19938C58.7499 3.9157 58.9469 3.70032 59.2149 3.55322C59.488 3.40613 59.8269 3.33258 60.2314 3.33258V4.2703C60.1894 4.25979 60.15 4.25454 60.1132 4.25454C60.0764 4.24929 60.0396 4.24666 60.0029 4.24666C59.6299 4.24666 59.3331 4.35698 59.1124 4.57762C58.8918 4.793 58.7815 5.11608 58.7815 5.54686V7.58777H57.7965ZM2.83668 16.5878L5.31887 11.0718H6.32751L8.81758 16.5878H7.7459L5.61043 11.6155H6.02019L3.8926 16.5878H2.83668ZM3.97928 15.3112L4.25507 14.5075H7.2337L7.5095 15.3112H3.97928ZM12.0486 12.3326C12.3848 12.3326 12.6842 12.3982 12.9469 12.5296C13.2148 12.6609 13.4249 12.8632 13.5773 13.1363C13.7296 13.4043 13.8058 13.751 13.8058 14.1765V16.5878H12.8208V14.3026C12.8208 13.9296 12.7315 13.6512 12.5529 13.4673C12.3795 13.2834 12.1352 13.1915 11.82 13.1915C11.5889 13.1915 11.384 13.2388 11.2054 13.3333C11.0268 13.4279 10.8876 13.5697 10.7878 13.7589C10.6932 13.9427 10.6459 14.1765 10.6459 14.4602V16.5878H9.66092V12.3799H10.5986V13.5146L10.4332 13.1679C10.5803 12.8999 10.793 12.6951 11.0714 12.5532C11.3551 12.4061 11.6808 12.3326 12.0486 12.3326ZM17.0803 16.6429C16.6758 16.6429 16.3107 16.5536 15.985 16.375C15.6645 16.1911 15.4124 15.939 15.2285 15.6185C15.0446 15.2981 14.9527 14.9198 14.9527 14.4838C14.9527 14.0478 15.0446 13.6696 15.2285 13.3491C15.4124 13.0286 15.6645 12.7791 15.985 12.6005C16.3107 12.4219 16.6758 12.3326 17.0803 12.3326C17.4323 12.3326 17.7475 12.4114 18.0259 12.569C18.3043 12.7213 18.5249 12.9551 18.6878 13.2703C18.8507 13.5855 18.9321 13.99 18.9321 14.4838C18.9321 14.9724 18.8533 15.3769 18.6957 15.6973C18.5381 16.0125 18.3201 16.2489 18.0416 16.4065C17.7632 16.5641 17.4428 16.6429 17.0803 16.6429ZM17.1985 15.7998C17.4349 15.7998 17.645 15.7472 17.8289 15.6422C18.018 15.5371 18.1677 15.3848 18.278 15.1851C18.3936 14.9855 18.4514 14.7517 18.4514 14.4838C18.4514 14.2106 18.3936 13.9769 18.278 13.7825C18.1677 13.5829 18.018 13.4305 17.8289 13.3255C17.645 13.2204 17.4349 13.1679 17.1985 13.1679C16.9621 13.1679 16.7493 13.2204 16.5602 13.3255C16.3763 13.4305 16.2266 13.5829 16.111 13.7825C16.0007 13.9769 15.9456 14.2106 15.9456 14.4838C15.9456 14.7517 16.0007 14.9855 16.111 15.1851C16.2266 15.3848 16.3763 15.5371 16.5602 15.6422C16.7493 15.7472 16.9621 15.7998 17.1985 15.7998ZM18.475 16.5878V15.5949L18.5144 14.4759L18.4356 13.357V10.7408H19.4128V16.5878H18.475ZM20.9456 16.5878V12.3799H21.8833V13.5382L21.773 13.1994C21.8991 12.9157 22.0961 12.7003 22.364 12.5532C22.6372 12.4061 22.976 12.3326 23.3805 12.3326V13.2703C23.3385 13.2598 23.2991 13.2545 23.2623 13.2545C23.2255 13.2493 23.1888 13.2467 23.152 13.2467C22.779 13.2467 22.4822 13.357 22.2615 13.5776C22.0409 13.793 21.9306 14.1161 21.9306 14.5469V16.5878H20.9456ZM26.3052 16.6429C25.8744 16.6429 25.4909 16.551 25.1547 16.3671C24.8185 16.178 24.5532 15.9206 24.3589 15.5949C24.1645 15.2692 24.0673 14.8988 24.0673 14.4838C24.0673 14.0636 24.1645 13.6932 24.3589 13.3727C24.5532 13.047 24.8185 12.7922 25.1547 12.6084C25.4909 12.4245 25.8744 12.3326 26.3052 12.3326C26.7412 12.3326 27.1274 12.4245 27.4636 12.6084C27.805 12.7922 28.0703 13.0444 28.2594 13.3649C28.4538 13.6853 28.551 14.0583 28.551 14.4838C28.551 14.8988 28.4538 15.2692 28.2594 15.5949C28.0703 15.9206 27.805 16.178 27.4636 16.3671C27.1274 16.551 26.7412 16.6429 26.3052 16.6429ZM26.3052 15.7998C26.5469 15.7998 26.7622 15.7472 26.9514 15.6422C27.1405 15.5371 27.2876 15.3848 27.3926 15.1851C27.503 14.9855 27.5581 14.7517 27.5581 14.4838C27.5581 14.2106 27.503 13.9769 27.3926 13.7825C27.2876 13.5829 27.1405 13.4305 26.9514 13.3255C26.7622 13.2204 26.5495 13.1679 26.3131 13.1679C26.0714 13.1679 25.856 13.2204 25.6669 13.3255C25.4831 13.4305 25.336 13.5829 25.2257 13.7825C25.1153 13.9769 25.0602 14.2106 25.0602 14.4838C25.0602 14.7517 25.1153 14.9855 25.2257 15.1851C25.336 15.3848 25.4831 15.5371 25.6669 15.6422C25.856 15.7472 26.0688 15.7998 26.3052 15.7998ZM29.7293 16.5878V12.3799H30.7143V16.5878H29.7293ZM30.2257 11.6864C30.0419 11.6864 29.8895 11.6286 29.7687 11.5131C29.6531 11.3975 29.5953 11.2583 29.5953 11.0954C29.5953 10.9273 29.6531 10.7881 29.7687 10.6778C29.8895 10.5622 30.0419 10.5044 30.2257 10.5044C30.4096 10.5044 30.5593 10.5596 30.6749 10.6699C30.7957 10.775 30.8561 10.9089 30.8561 11.0718C30.8561 11.2451 30.7984 11.3922 30.6828 11.5131C30.5672 11.6286 30.4149 11.6864 30.2257 11.6864ZM34.0244 16.6429C33.6199 16.6429 33.2548 16.5536 32.9291 16.375C32.6086 16.1911 32.3565 15.939 32.1726 15.6185C31.9887 15.2981 31.8968 14.9198 31.8968 14.4838C31.8968 14.0478 31.9887 13.6696 32.1726 13.3491C32.3565 13.0286 32.6086 12.7791 32.9291 12.6005C33.2548 12.4219 33.6199 12.3326 34.0244 12.3326C34.3764 12.3326 34.6916 12.4114 34.97 12.569C35.2484 12.7213 35.469 12.9551 35.6319 13.2703C35.7947 13.5855 35.8762 13.99 35.8762 14.4838C35.8762 14.9724 35.7974 15.3769 35.6398 15.6973C35.4822 16.0125 35.2642 16.2489 34.9857 16.4065C34.7073 16.5641 34.3869 16.6429 34.0244 16.6429ZM34.1426 15.7998C34.379 15.7998 34.5891 15.7472 34.773 15.6422C34.9621 15.5371 35.1118 15.3848 35.2221 15.1851C35.3377 14.9855 35.3955 14.7517 35.3955 14.4838C35.3955 14.2106 35.3377 13.9769 35.2221 13.7825C35.1118 13.5829 34.9621 13.4305 34.773 13.3255C34.5891 13.2204 34.379 13.1679 34.1426 13.1679C33.9062 13.1679 33.6934 13.2204 33.5043 13.3255C33.3204 13.4305 33.1707 13.5829 33.0551 13.7825C32.9448 13.9769 32.8897 14.2106 32.8897 14.4838C32.8897 14.7517 32.9448 14.9855 33.0551 15.1851C33.1707 15.3848 33.3204 15.5371 33.5043 15.6422C33.6934 15.7472 33.9062 15.7998 34.1426 15.7998ZM35.4191 16.5878V15.5949L35.4585 14.4759L35.3797 13.357V10.7408H36.3569V16.5878H35.4191Z" fill="white"/>
<path d="M58.0309 11.5529H47.6456C46.4165 11.5529 45.4202 12.5508 45.4202 13.7818V24.1833C45.4202 25.4143 46.4165 26.4122 47.6456 26.4122H58.0309C59.26 26.4122 60.2564 25.4143 60.2564 24.1833V13.7818C60.2564 12.5508 59.26 11.5529 58.0309 11.5529Z" fill="#5FCC39"/>
<path d="M48.522 17.7056V20.7819V17.7056ZM57.1861 17.7056V20.7819V17.7056ZM54.0855 22.6974V24.3226V22.6974ZM51.6225 22.6974V24.3226V22.6974Z" fill="white"/>
<path d="M48.522 17.7056V20.7819M57.1861 17.7056V20.7819M54.0855 22.6974V24.3226M51.6225 22.6974V24.3226" stroke="white" stroke-width="1.68329" stroke-linecap="round"/>
<path d="M51.3036 14.1068L50.811 13.1781L51.3036 14.1068ZM54.3752 14.1068L54.8968 13.1781L54.3752 14.1068Z" fill="white"/>
<path d="M51.3036 14.1068L50.811 13.1781M54.3752 14.1068L54.8968 13.1781" stroke="white" stroke-width="0.232178" stroke-linecap="round"/>
<path d="M52.8673 13.7585C50.665 13.7585 49.5349 15.4999 49.5349 16.8059H56.1706C56.1706 15.4418 54.9536 13.7876 52.8673 13.7585ZM49.5349 17.0961V21.8557C49.5349 22.3201 49.9116 22.6974 50.3463 22.6974H55.3303C55.7939 22.6974 56.1706 22.3201 56.1706 21.8557V17.0961H49.5349Z" fill="white"/>
<path d="M51.3289 15.587C51.4729 15.587 51.5897 15.47 51.5897 15.3258C51.5897 15.1815 51.4729 15.0646 51.3289 15.0646C51.1849 15.0646 51.0681 15.1815 51.0681 15.3258C51.0681 15.47 51.1849 15.587 51.3289 15.587Z" fill="#5FCC39"/>
<path d="M54.3714 15.587C54.5154 15.587 54.6322 15.47 54.6322 15.3258C54.6322 15.1815 54.5154 15.0646 54.3714 15.0646C54.2274 15.0646 54.1106 15.1815 54.1106 15.3258C54.1106 15.47 54.2274 15.587 54.3714 15.587Z" fill="#5FCC39"/>
</svg>
