<svg width="36" height="56" viewBox="0 0 36 56" fill="none" xmlns="http://www.w3.org/2000/svg">
<path d="M9.54631 18.8407L7.95147 27.9632C7.91229 28.1975 7.93931 28.4381 8.02947 28.6578C8.11964 28.8776 8.26938 29.0679 8.46182 29.2071C8.65504 29.35 8.88427 29.4361 9.12374 29.4558C9.36322 29.4756 9.60345 29.4281 9.81743 29.3188L11.189 28.5692L18.0149 25.0127L26.2284 29.3188C26.4365 29.4291 26.6719 29.4772 26.9066 29.4574C27.1413 29.4376 27.3654 29.3507 27.5521 29.2071C27.7474 29.0705 27.8993 28.8806 27.9898 28.66C28.0803 28.4395 28.1055 28.1976 28.0624 27.9632L26.4676 18.8407L33.1021 12.3656C33.2714 12.2025 33.3917 11.9953 33.4494 11.7673C33.507 11.5394 33.4998 11.2999 33.4284 11.0759C33.3571 10.8519 33.2245 10.6524 33.0456 10.4998C32.8668 10.3472 32.6488 10.2477 32.4164 10.2126L23.2141 8.8729L19.1632 0.563766C19.0276 0.388314 18.8536 0.246272 18.6545 0.148543C18.4555 0.0508149 18.2367 0 18.0149 0C17.7932 0 17.5744 0.0508149 17.3753 0.148543C17.1763 0.246272 17.0023 0.388314 16.8666 0.563766L12.7679 8.8729L3.66134 10.2126C3.40471 10.2358 3.16188 10.3392 2.96725 10.508C2.77261 10.6769 2.63603 10.9027 2.57685 11.1535C2.50013 11.378 2.49098 11.62 2.55051 11.8497C2.61004 12.0793 2.73565 12.2864 2.91176 12.4453L9.54631 18.8407ZM13.8045 11.2811C14.0094 11.2517 14.2039 11.1723 14.3708 11.05C14.5377 10.9276 14.6719 10.7659 14.7614 10.5794L18.0149 3.96078L18.908 5.8108L21.2684 10.5953C21.3611 10.7781 21.4965 10.9358 21.663 11.0552C21.8296 11.1746 22.0225 11.252 22.2253 11.2811L29.5137 12.3497L24.2348 17.5329C24.0898 17.6725 23.9828 17.8469 23.9242 18.0395C23.8656 18.2322 23.8572 18.4366 23.8999 18.6333L25.1279 25.8899L18.605 22.461C18.4196 22.3671 18.2148 22.3181 18.007 22.3181C17.7992 22.3181 17.5943 22.3671 17.4089 22.461L10.9019 25.8739L12.1459 18.6333C12.1828 18.429 12.1686 18.2187 12.1046 18.0211C12.0406 17.8236 11.9288 17.6449 11.7791 17.501L11.4123 17.1661L6.51611 12.3816L13.8045 11.2811Z" fill="#212121"/>
<path d="M32.521 29.4619C32.0698 30.4328 31.3848 31.2767 30.5275 31.918H30.3999C31.8804 34.0357 32.6713 36.5587 32.6645 39.1426V52.8104H3.33538V39.2064C3.32808 36.6248 4.11297 34.1032 5.58411 31.9818H5.48842C4.61656 31.3474 3.91972 30.5024 3.46297 29.5257C1.31626 32.32 0.155387 35.7465 0.161646 39.2702V54.4053C0.161646 54.8282 0.329673 55.2339 0.628765 55.533C0.927856 55.8321 1.33351 56.0001 1.75649 56.0001H34.2434C34.6664 56.0001 35.0721 55.8321 35.3712 55.533C35.6703 55.2339 35.8383 54.8282 35.8383 54.4053V39.2064C35.84 35.6809 34.6734 32.2541 32.521 29.4619Z" fill="#212121"/>
</svg>
